#include "notes.h"
#include "song.h"

const int songTempo = 224;
const int songMelody[] = {
  NOTE_E5, -4,
  NOTE_E5, 8,
  NOTE_E5, 8,
  NOTE_E5, -4,
  NOTE_E5, 8,
  NOTE_E5, 8,
  NOTE_E5, 8,
  NOTE_DS5, 8,
  NOTE_D5, 8,
  NOTE_CS5, 8,
  NOTE_C5, 8,
  NOTE_B4, 8,
  NOTE_AS4, 8,
  NOTE_A4, 8,
  NOTE_GS4, 8,
  NOTE_G4, 8,
  NOTE_FS4, 8,
  NOTE_F4, 8,
  NOTE_E4, 8,
  NOTE_DS4, 8,
  NOTE_D4, 8,
  NOTE_CS4, 8,
  NOTE_FS5, -4,
  NOTE_FS5, 8,
  NOTE_FS5, 8,
  NOTE_FS5, -4,
  NOTE_FS5, 8,
  NOTE_FS5, 8,
  NOTE_FS5, 8,
  NOTE_F5, 8,
  NOTE_E5, 8,
  NOTE_DS5, 8,
  NOTE_D5, 8,
  NOTE_CS5, 8,
  NOTE_C5, 8,
  NOTE_B4, 8,
  NOTE_AS4, 8,
  NOTE_A4, 8,
  NOTE_GS4, 8,
  NOTE_G4, 8,
  NOTE_FS4, 8,
  NOTE_F4, 8,
  NOTE_E4, 8,
  NOTE_DS4, 8,
  NOTE_G5, -4,
  NOTE_G5, 8,
  NOTE_G5, 8,
  NOTE_G5, -4,
  NOTE_G5, 8,
  NOTE_G5, 8,
  NOTE_G4, 8,
  NOTE_A4, 8,
  NOTE_AS4, 8,
  NOTE_B4, 8,
  NOTE_C5, 8,
  NOTE_CS5, 8,
  NOTE_D5, 8,
  NOTE_DS5, 8,
  NOTE_E5, 8,
  NOTE_F5, 8,
  NOTE_FS5, 8,
  NOTE_G5, 8,
  NOTE_GS5, 8,
  NOTE_A5, 8,
  NOTE_AS5, 8,
  NOTE_B5, 8,
  NOTE_C6, 8,
  REST, 8,
  NOTE_B5, 8,
  REST, 8,
  NOTE_AS5, 8,
  NOTE_B5, 8,
  NOTE_AS5, 8,
  NOTE_A5, 8,
  NOTE_GS5, 8,
  REST, 8,
  NOTE_G5, 8,
  REST, 8,
  NOTE_FS5, 4,
  NOTE_G5, 4,
  NOTE_A5, 8,
  REST, 8,
  NOTE_GS5, 8,
  REST, 8,
  NOTE_G5, 8,
  NOTE_GS5, 8,
  NOTE_G5, 8,
  NOTE_FS5, 8,
  NOTE_F5, 8,
  REST, 8,
  NOTE_E5, 8,
  REST, 8,
  NOTE_DS5, 4,
  NOTE_E5, 4,
  NOTE_G5, 8,
  REST, 8,
  NOTE_D5, 8,
  NOTE_D5, 8,
  NOTE_CS5, 4,
  NOTE_D5, 4,
  NOTE_G5, 8,
  REST, 8,
  NOTE_D5, 8,
  NOTE_D5, 8,
  NOTE_CS5, 4,
  NOTE_D5, 4,
  NOTE_B4, 8,
  NOTE_C5, 8,
  NOTE_CS5, 8,
  NOTE_D5, 8,
  NOTE_DS5, 8,
  NOTE_E5, 8,
  NOTE_F5, 8,
  NOTE_FS5, 8,
  NOTE_G5, 8,
  NOTE_GS5, 8,
  NOTE_A5, 8,
  NOTE_B5, 8,
  NOTE_A5, 4,
  NOTE_G5, 4,
  NOTE_C6, 8,
  REST, 8,
  NOTE_B5, 8,
  REST, 8,
  NOTE_AS5, 8,
  NOTE_B5, 8,
  NOTE_AS5, 8,
  NOTE_A5, 8,
  NOTE_GS5, 8,
  REST, 8,
  NOTE_G5, 8,
  REST, 8,
  NOTE_FS5, 4,
  NOTE_G5, 4,
  NOTE_A5, 8,
  REST, 8,
  NOTE_GS5, 8,
  REST, 8,
  NOTE_G5, 8,
  NOTE_GS5, 8,
  NOTE_G5, 8,
  NOTE_FS5, 8,
  NOTE_F5, 8,
  REST, 8,
  NOTE_E5, 8,
  REST, 8,
  NOTE_DS5, 4,
  NOTE_E5, 4,
  NOTE_DS5, 8,
  REST, 8,
  NOTE_DS5, 8,
  NOTE_DS5, 8,
  NOTE_FS5, 4,
  NOTE_B4, 4,
  NOTE_G5, 8,
  NOTE_A5, 8,
  NOTE_G5, 8,
  NOTE_FS5, 8,
  NOTE_E5, -4,
  NOTE_B5, 8,
  REST, 8,
  NOTE_B5, 8,
  NOTE_B5, 8,
  NOTE_B5, 8,
  REST, 8,
  NOTE_B5, 8,
  REST, 8,
  NOTE_B5, 8,
  NOTE_B5, 8,
  NOTE_B5, 8,
  NOTE_B5, 8,
  NOTE_B5, 8,
  NOTE_B5, 8,
  NOTE_B5, 4,
  NOTE_C6, 8,
  REST, 8,
  NOTE_B5, 8,
  REST, 8,
  NOTE_AS5, 8,
  NOTE_B5, 8,
  NOTE_AS5, 8,
  NOTE_A5, 8,
  NOTE_GS5, 8,
  REST, 8,
  NOTE_G5, 8,
  REST, 8,
  NOTE_FS5, 4,
  NOTE_G5, 4,
  NOTE_A5, 8,
  REST, 8,
  NOTE_GS5, 8,
  REST, 8,
  NOTE_G5, 8,
  NOTE_GS5, 8,
  NOTE_G5, 8,
  NOTE_FS5, 8,
  NOTE_F5, 8,
  REST, 8,
  NOTE_E5, 8,
  REST, 8,
  NOTE_DS5, 4,
  NOTE_E5, 4,
  NOTE_G5, 8,
  REST, 8,
  NOTE_D5, 8,
  NOTE_D5, 8,
  NOTE_CS5, 4,
  NOTE_D5, 4,
  NOTE_G5, 8,
  REST, 8,
  NOTE_D5, 8,
  NOTE_D5, 8,
  NOTE_CS5, 4,
  NOTE_D5, 4,
  NOTE_B4, 8,
  NOTE_C5, 8,
  NOTE_CS5, 8,
  NOTE_D5, 8,
  NOTE_DS5, 8,
  NOTE_E5, 8,
  NOTE_F5, 8,
  NOTE_FS5, 8,
  NOTE_G5, 8,
  NOTE_GS5, 8,
  NOTE_A5, 8,
  NOTE_B5, 8,
  NOTE_A5, 4,
  NOTE_G5, 4,
  NOTE_C6, 8,
  REST, 8,
  NOTE_B5, 8,
  REST, 8,
  NOTE_AS5, 8,
  NOTE_B5, 8,
  NOTE_AS5, 8,
  NOTE_A5, 8,
  NOTE_GS5, 8,
  REST, 8,
  NOTE_G5, 8,
  REST, 8,
  NOTE_FS5, 4,
  NOTE_G5, 4,
  NOTE_A5, 8,
  REST, 8,
  NOTE_GS5, 8,
  REST, 8,
  NOTE_G5, 8,
  NOTE_GS5, 8,
  NOTE_G5, 8,
  NOTE_FS5, 8,
  NOTE_F5, 8,
  REST, 8,
  NOTE_E5, 8,
  REST, 8,
  NOTE_DS5, 4,
  NOTE_E5, 4,
  NOTE_D5, 8,
  REST, 8,
  NOTE_D5, 8,
  NOTE_D5, 8,
  NOTE_A5, 4,
  NOTE_D5, 4,
  NOTE_DS5, 8,
  REST, 8,
  NOTE_DS5, 8,
  NOTE_DS5, 8,
  NOTE_AS5, 4,
  NOTE_DS5, 4,
  NOTE_B5, 8,
  NOTE_D6, 8,
  NOTE_CS6, 8,
  NOTE_C6, 8,
  NOTE_B5, 8,
  REST, 8,
  NOTE_A5, 8,
  REST, 8,
  NOTE_G5, 4,
};

// Declare the Song structure with your song
Song hedwigsTheme = {
    .tempo = songTempo,
    .melody = songMelody,
    .notes = sizeof(songMelody) / sizeof(songMelody[0]) / 2,
};